<svg width="25" height="24" viewBox="0 0 25 24" fill="none" xmlns="http://www.w3.org/2000/svg">
<g clip-path="url(#clip0_112_1310)">
<path fill-rule="evenodd" clip-rule="evenodd" d="M22.0306 20.4694L17.3366 15.7762C20.1629 12.383 19.8204 7.36693 16.5591 4.38935C13.2978 1.41176 8.27134 1.526 5.14867 4.64867C2.026 7.77134 1.91176 12.7978 4.88935 16.0591C7.86693 19.3204 12.883 19.6629 16.2762 16.8366L20.9694 21.5306C21.2624 21.8237 21.7376 21.8237 22.0306 21.5306C22.3237 21.2376 22.3237 20.7624 22.0306 20.4694ZM4.25 10.5C4.25 6.77208 7.27208 3.75 11 3.75C14.7279 3.75 17.75 6.77208 17.75 10.5C17.75 14.2279 14.7279 17.25 11 17.25C7.27379 17.2459 4.25413 14.2262 4.25 10.5Z" fill="#333333"/>
</g>
<defs>
<clipPath id="clip0_112_1310">
<rect width="24" height="24" fill="white" transform="translate(0.5)"/>
</clipPath>
</defs>
</svg>
