<svg width="40" height="40" viewBox="0 0 40 40" fill="none" xmlns="http://www.w3.org/2000/svg">
<path d="M5.27273 9.09046C4.83874 9.09046 4.42252 9.24511 4.11565 9.5204C3.80877 9.79568 3.63637 10.169 3.63637 10.5584C3.63637 10.9477 3.80877 11.321 4.11565 11.5963C4.42252 11.8716 4.83874 12.0262 5.27273 12.0262V9.09046ZM8.54544 10.5584L10.1769 10.4453C10.1452 10.0767 9.95951 9.73237 9.65705 9.48119C9.35459 9.23001 8.95761 9.09047 8.54544 9.09046V10.5584ZM34.7272 14.962L36.3537 15.1235C36.379 14.9183 36.3558 14.7107 36.2856 14.5142C36.2154 14.3176 36.0998 14.1365 35.9463 13.9828C35.7928 13.829 35.6049 13.706 35.3948 13.6218C35.1848 13.5376 34.9573 13.4941 34.7272 13.4941V14.962ZM5.27273 12.0262H8.54544V9.09046H5.27273V12.0262ZM13.5445 30.8974L30.4874 29.8112L30.255 26.8828L13.3122 27.969L13.5445 30.8974ZM35.0184 25.9051L36.3537 15.1235L33.1006 14.8006L31.7654 25.5807L35.0184 25.9051ZM6.91399 10.6714L7.29036 15.075L10.5549 14.849L10.1769 10.4453L6.91399 10.6714ZM7.29036 15.075L8.29999 26.8431L11.5645 26.6171L10.5549 14.849L7.29036 15.075ZM34.7272 13.4941H8.9218V16.4299H34.7272V13.4941ZM30.4874 29.8112C31.6323 29.7379 32.7141 29.3069 33.5416 28.5933C34.3691 27.8797 34.8916 26.9285 35.0184 25.9051L31.7654 25.5807C31.7227 25.9217 31.5483 26.2399 31.2724 26.4775C30.9965 26.7151 30.6365 26.8585 30.255 26.8828L30.4874 29.8112ZM13.3122 27.969C12.8808 27.9969 12.4547 27.8706 12.1269 27.6175C11.7991 27.3645 11.5964 27.0053 11.5629 26.6185L8.29999 26.8431C8.3992 28.0037 9.00656 29.0803 9.98932 29.8403C10.9721 30.6003 12.2503 30.9804 13.5445 30.8974L13.3122 27.969Z" fill="white"/>
<path d="M14.5455 36.3632H14.5616V38.1814H14.5455V36.3632ZM29.0748 36.3632H29.0909V38.1814H29.0748V36.3632Z" stroke="white" stroke-width="2" stroke-linejoin="round"/>
</svg>
