<svg width="26" height="26" viewBox="0 0 26 26" fill="none" xmlns="http://www.w3.org/2000/svg">
<path d="M19 11.9092H3.72729L5.90911 25.0001H16.8182L19 11.9092Z" stroke="#1C5A98" stroke-miterlimit="10" stroke-linecap="round" stroke-linejoin="round"/>
<path d="M18.6367 14.0909H21.1818L23.3636 17.9091L21.1818 21.7273H17.3636M6.45455 11.9091L2.63636 8.09091L1 3.72727L5.36364 5.36364L11.9091 11.9091M3.72727 9.18182L6.45455 6.45455M25 3.72727L22.2727 1H18.4545L16.2727 3.18182V5.90909L18.4545 7.54545H20.6364L22.2727 3.72727H25Z" stroke="#1C5A98" stroke-miterlimit="10" stroke-linecap="round" stroke-linejoin="round"/>
<path d="M16.2727 11.9092L18.4545 7.54554L16.2727 5.90918L11.9091 11.9092" stroke="#1C5A98" stroke-miterlimit="10" stroke-linecap="round" stroke-linejoin="round"/>
<path d="M14.0909 8.90909V1H8.63635V8.63636M14.0909 3.18182H11.9091M14.0909 5.36364H11.9091" stroke="#1C5A98" stroke-miterlimit="10" stroke-linecap="round" stroke-linejoin="round"/>
</svg>
