<svg width="122" height="23" viewBox="0 0 122 23" fill="none" xmlns="http://www.w3.org/2000/svg">
<path d="M1.296 19V5.59H5.67C7.086 5.59 8.316 5.878 9.36 6.454C10.416 7.018 11.232 7.804 11.808 8.812C12.384 9.808 12.672 10.966 12.672 12.286C12.672 13.594 12.384 14.758 11.808 15.778C11.232 16.786 10.416 17.578 9.36 18.154C8.316 18.718 7.086 19 5.67 19H1.296ZM3.744 16.84H5.724C6.636 16.84 7.422 16.654 8.082 16.282C8.754 15.898 9.276 15.37 9.648 14.698C10.02 14.014 10.206 13.21 10.206 12.286C10.206 11.35 10.02 10.546 9.648 9.874C9.276 9.202 8.754 8.68 8.082 8.308C7.422 7.936 6.636 7.75 5.724 7.75H3.744V16.84ZM19.0662 19.216C18.0582 19.216 17.1762 18.988 16.4202 18.532C15.6642 18.076 15.0762 17.458 14.6562 16.678C14.2362 15.898 14.0262 15.034 14.0262 14.086C14.0262 13.102 14.2362 12.232 14.6562 11.476C15.0882 10.708 15.6702 10.102 16.4022 9.658C17.1462 9.214 17.9742 8.992 18.8862 8.992C19.6542 8.992 20.3262 9.118 20.9022 9.37C21.4902 9.622 21.9882 9.97 22.3962 10.414C22.8042 10.858 23.1162 11.368 23.3322 11.944C23.5482 12.508 23.6562 13.12 23.6562 13.78C23.6562 13.948 23.6442 14.122 23.6202 14.302C23.6082 14.482 23.5782 14.638 23.5302 14.77H15.9702V12.97H22.1982L21.0822 13.816C21.1902 13.264 21.1602 12.772 20.9922 12.34C20.8362 11.908 20.5722 11.566 20.2002 11.314C19.8402 11.062 19.4022 10.936 18.8862 10.936C18.3942 10.936 17.9562 11.062 17.5722 11.314C17.1882 11.554 16.8942 11.914 16.6902 12.394C16.4982 12.862 16.4262 13.432 16.4742 14.104C16.4262 14.704 16.5042 15.238 16.7082 15.706C16.9242 16.162 17.2362 16.516 17.6442 16.768C18.0642 17.02 18.5442 17.146 19.0842 17.146C19.6242 17.146 20.0802 17.032 20.4522 16.804C20.8362 16.576 21.1362 16.27 21.3522 15.886L23.2602 16.822C23.0682 17.29 22.7682 17.704 22.3602 18.064C21.9522 18.424 21.4662 18.706 20.9022 18.91C20.3502 19.114 19.7382 19.216 19.0662 19.216ZM29.1697 19.216C28.1257 19.216 27.2137 18.97 26.4337 18.478C25.6657 17.974 25.1377 17.296 24.8497 16.444L26.6137 15.598C26.8657 16.15 27.2137 16.582 27.6577 16.894C28.1137 17.206 28.6177 17.362 29.1697 17.362C29.6017 17.362 29.9437 17.266 30.1957 17.074C30.4477 16.882 30.5737 16.63 30.5737 16.318C30.5737 16.126 30.5197 15.97 30.4117 15.85C30.3157 15.718 30.1777 15.61 29.9977 15.526C29.8297 15.43 29.6437 15.352 29.4397 15.292L27.8377 14.842C27.0097 14.602 26.3797 14.236 25.9477 13.744C25.5277 13.252 25.3177 12.67 25.3177 11.998C25.3177 11.398 25.4677 10.876 25.7677 10.432C26.0797 9.976 26.5057 9.622 27.0457 9.37C27.5977 9.118 28.2277 8.992 28.9357 8.992C29.8597 8.992 30.6757 9.214 31.3837 9.658C32.0917 10.102 32.5957 10.726 32.8957 11.53L31.0957 12.376C30.9277 11.932 30.6457 11.578 30.2497 11.314C29.8537 11.05 29.4097 10.918 28.9177 10.918C28.5217 10.918 28.2097 11.008 27.9817 11.188C27.7537 11.368 27.6397 11.602 27.6397 11.89C27.6397 12.07 27.6877 12.226 27.7837 12.358C27.8797 12.49 28.0117 12.598 28.1797 12.682C28.3597 12.766 28.5637 12.844 28.7917 12.916L30.3577 13.384C31.1617 13.624 31.7797 13.984 32.2117 14.464C32.6557 14.944 32.8777 15.532 32.8777 16.228C32.8777 16.816 32.7217 17.338 32.4097 17.794C32.0977 18.238 31.6657 18.586 31.1137 18.838C30.5617 19.09 29.9137 19.216 29.1697 19.216ZM34.6898 19V9.208H37.0478V19H34.6898ZM34.6898 8.11V5.59H37.0478V8.11H34.6898ZM43.977 22.96C43.245 22.96 42.567 22.84 41.943 22.6C41.319 22.36 40.779 22.024 40.323 21.592C39.879 21.172 39.555 20.674 39.351 20.098L41.547 19.27C41.691 19.726 41.973 20.092 42.393 20.368C42.825 20.656 43.353 20.8 43.977 20.8C44.457 20.8 44.877 20.71 45.237 20.53C45.609 20.35 45.897 20.086 46.101 19.738C46.305 19.402 46.407 18.994 46.407 18.514V16.282L46.857 16.822C46.521 17.41 46.071 17.854 45.507 18.154C44.943 18.454 44.301 18.604 43.581 18.604C42.669 18.604 41.853 18.394 41.133 17.974C40.413 17.554 39.849 16.978 39.441 16.246C39.033 15.514 38.829 14.692 38.829 13.78C38.829 12.856 39.033 12.034 39.441 11.314C39.849 10.594 40.407 10.03 41.115 9.622C41.823 9.202 42.627 8.992 43.527 8.992C44.259 8.992 44.901 9.148 45.453 9.46C46.017 9.76 46.485 10.198 46.857 10.774L46.533 11.368V9.208H48.765V18.514C48.765 19.366 48.555 20.128 48.135 20.8C47.727 21.472 47.163 22 46.443 22.384C45.735 22.768 44.913 22.96 43.977 22.96ZM43.869 16.426C44.373 16.426 44.811 16.318 45.183 16.102C45.567 15.874 45.867 15.562 46.083 15.166C46.299 14.77 46.407 14.314 46.407 13.798C46.407 13.294 46.293 12.844 46.065 12.448C45.849 12.04 45.549 11.722 45.165 11.494C44.793 11.266 44.361 11.152 43.869 11.152C43.377 11.152 42.933 11.266 42.537 11.494C42.141 11.722 41.829 12.04 41.601 12.448C41.385 12.844 41.277 13.294 41.277 13.798C41.277 14.302 41.385 14.752 41.601 15.148C41.829 15.544 42.135 15.856 42.519 16.084C42.915 16.312 43.365 16.426 43.869 16.426ZM50.9671 19V9.208H53.1811V11.134L53.0011 10.792C53.2291 10.204 53.6011 9.76 54.1171 9.46C54.6451 9.148 55.2571 8.992 55.9531 8.992C56.6731 8.992 57.3091 9.148 57.8611 9.46C58.4251 9.772 58.8631 10.21 59.1751 10.774C59.4871 11.326 59.6431 11.968 59.6431 12.7V19H57.2851V13.258C57.2851 12.826 57.2011 12.454 57.0331 12.142C56.8651 11.83 56.6311 11.59 56.3311 11.422C56.0431 11.242 55.7011 11.152 55.3051 11.152C54.9211 11.152 54.5791 11.242 54.2791 11.422C53.9791 11.59 53.7451 11.83 53.5771 12.142C53.4091 12.454 53.3251 12.826 53.3251 13.258V19H50.9671Z" fill="#98F9FF"/>
<path d="M69.8223 19.216C68.9703 19.216 68.1783 19.06 67.4463 18.748C66.7263 18.436 66.1023 18.004 65.5743 17.452C65.0583 16.888 64.6803 16.234 64.4403 15.49L66.4743 14.608C66.7983 15.376 67.2663 15.982 67.8783 16.426C68.4903 16.858 69.1803 17.074 69.9483 17.074C70.3803 17.074 70.7523 17.008 71.0643 16.876C71.3883 16.732 71.6343 16.54 71.8023 16.3C71.9823 16.06 72.0723 15.772 72.0723 15.436C72.0723 15.04 71.9523 14.716 71.7123 14.464C71.4843 14.2 71.1363 13.996 70.6683 13.852L68.0943 13.024C67.0503 12.7 66.2643 12.214 65.7363 11.566C65.2083 10.918 64.9443 10.156 64.9443 9.28C64.9443 8.512 65.1303 7.834 65.5023 7.246C65.8863 6.658 66.4143 6.202 67.0863 5.878C67.7703 5.542 68.5503 5.374 69.4263 5.374C70.2303 5.374 70.9683 5.518 71.6403 5.806C72.3123 6.082 72.8883 6.472 73.3683 6.976C73.8603 7.468 74.2263 8.05 74.4663 8.722L72.4503 9.622C72.1863 8.95 71.7903 8.434 71.2623 8.074C70.7343 7.702 70.1223 7.516 69.4263 7.516C69.0183 7.516 68.6583 7.588 68.3463 7.732C68.0343 7.864 67.7883 8.056 67.6083 8.308C67.4403 8.548 67.3563 8.836 67.3563 9.172C67.3563 9.544 67.4763 9.874 67.7163 10.162C67.9563 10.438 68.3223 10.654 68.8143 10.81L71.2803 11.584C72.3483 11.932 73.1463 12.412 73.6743 13.024C74.2143 13.636 74.4843 14.392 74.4843 15.292C74.4843 16.06 74.2863 16.738 73.8903 17.326C73.4943 17.914 72.9483 18.376 72.2523 18.712C71.5563 19.048 70.7463 19.216 69.8223 19.216ZM80.9546 19.108C79.8506 19.108 78.9926 18.808 78.3806 18.208C77.7806 17.596 77.4806 16.738 77.4806 15.634V11.314H75.7886V9.208H75.9686C76.4486 9.208 76.8206 9.082 77.0846 8.83C77.3486 8.578 77.4806 8.212 77.4806 7.732V6.976H79.8386V9.208H82.0886V11.314H79.8386V15.508C79.8386 15.832 79.8926 16.108 80.0006 16.336C80.1206 16.564 80.3006 16.738 80.5406 16.858C80.7926 16.978 81.1106 17.038 81.4946 17.038C81.5786 17.038 81.6746 17.032 81.7826 17.02C81.9026 17.008 82.0166 16.996 82.1246 16.984V19C81.9566 19.024 81.7646 19.048 81.5486 19.072C81.3326 19.096 81.1346 19.108 80.9546 19.108ZM87.4181 19.216C86.6621 19.216 86.0021 19.048 85.4381 18.712C84.8861 18.376 84.4601 17.908 84.1601 17.308C83.8721 16.708 83.7281 16.006 83.7281 15.202V9.208H86.0861V15.004C86.0861 15.412 86.1641 15.772 86.3201 16.084C86.4881 16.384 86.7221 16.624 87.0221 16.804C87.3341 16.972 87.6821 17.056 88.0661 17.056C88.4501 17.056 88.7921 16.972 89.0921 16.804C89.3921 16.624 89.6261 16.378 89.7941 16.066C89.9621 15.754 90.0461 15.382 90.0461 14.95V9.208H92.4041V19H90.1721V17.074L90.3701 17.416C90.1421 18.016 89.7641 18.466 89.2361 18.766C88.7201 19.066 88.1141 19.216 87.4181 19.216ZM99.15 19.216C98.202 19.216 97.356 18.994 96.612 18.55C95.868 18.094 95.28 17.476 94.848 16.696C94.416 15.916 94.2 15.052 94.2 14.104C94.2 13.144 94.416 12.28 94.848 11.512C95.28 10.744 95.868 10.132 96.612 9.676C97.368 9.22 98.208 8.992 99.132 8.992C99.876 8.992 100.536 9.142 101.112 9.442C101.7 9.73 102.162 10.138 102.498 10.666L102.138 11.152V5.374H104.496V19H102.264V17.11L102.516 17.578C102.18 18.106 101.712 18.514 101.112 18.802C100.512 19.078 99.858 19.216 99.15 19.216ZM99.402 17.056C99.942 17.056 100.416 16.93 100.824 16.678C101.232 16.426 101.55 16.078 101.778 15.634C102.018 15.19 102.138 14.68 102.138 14.104C102.138 13.54 102.018 13.036 101.778 12.592C101.55 12.136 101.232 11.782 100.824 11.53C100.416 11.278 99.942 11.152 99.402 11.152C98.874 11.152 98.4 11.284 97.98 11.548C97.56 11.8 97.23 12.148 96.99 12.592C96.762 13.024 96.648 13.528 96.648 14.104C96.648 14.68 96.762 15.19 96.99 15.634C97.23 16.078 97.56 16.426 97.98 16.678C98.4 16.93 98.874 17.056 99.402 17.056ZM106.69 19V9.208H109.048V19H106.69ZM106.69 8.11V5.59H109.048V8.11H106.69ZM116.013 19.216C115.053 19.216 114.177 18.994 113.385 18.55C112.605 18.106 111.981 17.5 111.513 16.732C111.057 15.964 110.829 15.088 110.829 14.104C110.829 13.12 111.057 12.244 111.513 11.476C111.981 10.708 112.605 10.102 113.385 9.658C114.165 9.214 115.041 8.992 116.013 8.992C116.973 8.992 117.843 9.214 118.623 9.658C119.403 10.102 120.021 10.708 120.477 11.476C120.945 12.232 121.179 13.108 121.179 14.104C121.179 15.088 120.945 15.964 120.477 16.732C120.009 17.5 119.385 18.106 118.605 18.55C117.825 18.994 116.961 19.216 116.013 19.216ZM116.013 17.056C116.541 17.056 117.003 16.93 117.399 16.678C117.807 16.426 118.125 16.078 118.353 15.634C118.593 15.178 118.713 14.668 118.713 14.104C118.713 13.528 118.593 13.024 118.353 12.592C118.125 12.148 117.807 11.8 117.399 11.548C117.003 11.284 116.541 11.152 116.013 11.152C115.473 11.152 114.999 11.284 114.591 11.548C114.183 11.8 113.859 12.148 113.619 12.592C113.391 13.024 113.277 13.528 113.277 14.104C113.277 14.668 113.391 15.178 113.619 15.634C113.859 16.078 114.183 16.426 114.591 16.678C114.999 16.93 115.473 17.056 116.013 17.056Z" fill="#F5EBD9"/>
</svg>
