<svg width="26" height="26" viewBox="0 0 26 26" fill="none" xmlns="http://www.w3.org/2000/svg">
<path d="M1.4907 24.4721L9.84451 16.1322M20.3642 12.4235L17.8636 19.9129C17.8237 20.033 17.7554 20.1416 17.6644 20.2297C17.5735 20.3178 17.4626 20.3826 17.3411 20.4188L2.01183 24.9675C1.87373 25.0084 1.72702 25.0107 1.58767 24.9742C1.44832 24.9377 1.32167 24.8638 1.22151 24.7604C1.12135 24.657 1.0515 24.5282 1.01958 24.3879C0.987656 24.2477 0.994878 24.1014 1.04046 23.9649L6.01809 9.05951C6.05376 8.95249 6.11208 8.85438 6.18909 8.77185C6.2661 8.68931 6.35999 8.62429 6.4644 8.58118L13.5357 5.67453C13.6795 5.61526 13.8376 5.59981 13.9902 5.63012C14.1427 5.66044 14.2828 5.73517 14.3929 5.8449L20.1739 11.6189C20.2773 11.7221 20.3499 11.8521 20.3835 11.9942C20.4172 12.1363 20.4105 12.285 20.3642 12.4235Z" stroke="#1C5A98" stroke-width="1.5" stroke-linecap="round" stroke-linejoin="round"/>
<path d="M20.5191 11.9623L24.2314 8.25492C24.7235 7.76342 25 7.09689 25 6.4019C25 5.70692 24.7235 5.04038 24.2314 4.54888L21.4485 1.76804C21.2047 1.52455 20.9152 1.33139 20.5967 1.19961C20.2781 1.06783 19.9366 1 19.5917 1C19.2469 1 18.9054 1.06783 18.5868 1.19961C18.2682 1.33139 17.9788 1.52455 17.735 1.76804L14.0228 5.47539M12.6287 13.3514C12.4458 13.1689 12.2287 13.0241 11.9898 12.9254C11.7508 12.8266 11.4948 12.7759 11.2362 12.7759C10.9776 12.776 10.7215 12.8269 10.4826 12.9257C10.2437 13.0246 10.0267 13.1695 9.84388 13.352C9.66107 13.5346 9.51608 13.7514 9.41717 13.9899C9.31827 14.2285 9.2674 14.4841 9.26746 14.7423C9.26752 15.0004 9.31851 15.2561 9.41753 15.4946C9.51654 15.733 9.66164 15.9497 9.84454 16.1322C10.2139 16.5008 10.7148 16.7078 11.2371 16.7077C11.7593 16.7076 12.2602 16.5003 12.6294 16.1316C12.9986 15.7628 13.2059 15.2627 13.2058 14.7413C13.2057 14.22 12.9981 13.72 12.6287 13.3514Z" stroke="#1C5A98" stroke-width="1.5" stroke-linecap="round" stroke-linejoin="round"/>
</svg>
